<?xml version="1.0" encoding="iso-8859-1"?>
<!-- Uploaded to: SVG Repo, www.svgrepo.com, Generator: SVG Repo Mixer Tools -->
<svg height="800px" width="800px" version="1.1" id="Layer_1" xmlns="http://www.w3.org/2000/svg" xmlns:xlink="http://www.w3.org/1999/xlink" 
	 viewBox="0 0 512 512" xml:space="preserve">
<path style="fill:#A9A8AE;" d="M46.545,128.776v75.166v284.362c0,13.087,10.42,23.696,23.273,23.696H256h186.182
	c12.853,0,23.273-10.609,23.273-23.696V203.942v-75.166H46.545z"/>
<path style="fill:#57575C;" d="M442.182,186.182c-12.853,0-23.273,10.42-23.273,23.273c0,89.828-73.081,162.909-162.909,162.909
	S93.091,299.283,93.091,209.455c0-12.853-10.42-23.273-23.273-23.273s-23.273,10.42-23.273,23.273
	c0,34.534,8.408,67.139,23.273,95.887c6.555,12.674,14.372,24.595,23.273,35.601c38.429,47.52,97.176,77.967,162.909,77.967
	s124.478-30.447,162.909-77.965c8.901-11.008,16.718-22.927,23.273-35.601c14.865-28.748,23.273-61.353,23.273-95.887
	C465.455,196.602,455.035,186.182,442.182,186.182z"/>
<path style="fill:#FF3F62;" d="M442.182,0H256H69.818C31.32,0,0,31.32,0,69.818c0,30.34,19.458,56.207,46.545,65.815
	c7.284,2.583,15.113,4.003,23.273,4.003h23.273h46.545v69.818c0,38.498,31.32,69.818,69.818,69.818
	c17.869,0,34.183-6.755,46.545-17.835c14.272-12.792,23.273-31.353,23.273-51.984v-69.818h139.636h23.273
	c8.159,0,15.988-1.42,23.273-4.003C492.542,126.026,512,100.158,512,69.818C512,31.32,480.68,0,442.182,0z"/>
<path style="fill:#D8143A;" d="M93.091,139.636h46.545v69.818c0,38.498,31.319,69.818,69.818,69.818
	c17.869,0,34.183-6.755,46.545-17.835V0H69.818C31.319,0,0,31.32,0,69.818c0,30.34,19.458,56.208,46.545,65.815
	c7.284,2.583,15.113,4.003,23.273,4.003H93.091z"/>
<g>
	<path style="fill:#87868D;" d="M93.091,340.944c-8.901-11.008-16.718-22.927-23.273-35.601
		c-14.865-28.75-23.273-61.355-23.273-95.888v279.273c0,12.853,10.42,23.273,23.273,23.273H256v-93.091
		C190.267,418.909,131.52,388.462,93.091,340.944z"/>
	<path style="fill:#87868D;" d="M69.818,186.182c12.853,0,23.273,10.42,23.273,23.273c0,89.828,73.079,162.909,162.909,162.909
		V261.438c-12.362,11.079-28.677,17.835-46.545,17.835c-38.499,0-69.818-31.32-69.818-69.818v-69.818H93.091H69.818
		c-8.159,0-15.988-1.42-23.273-4.003v73.821C46.545,196.602,56.965,186.182,69.818,186.182z"/>
</g>
</svg>