<?xml version="1.0" encoding="UTF-8" standalone="no"?>
<!-- Created with Inkscape (http://www.inkscape.org/) -->

<svg
   width="400"
   height="200"
   viewBox="0 0 105.83333 52.916665"
   version="1.1"
   id="svg1"
   sodipodi:docname="title_screen_art.svg"
   inkscape:version="1.3.2 (091e20e, 2023-11-25, custom)"
   xmlns:inkscape="http://www.inkscape.org/namespaces/inkscape"
   xmlns:sodipodi="http://sodipodi.sourceforge.net/DTD/sodipodi-0.dtd"
   xmlns="http://www.w3.org/2000/svg"
   xmlns:svg="http://www.w3.org/2000/svg">
  <sodipodi:namedview
     id="namedview1"
     pagecolor="#ffffff"
     bordercolor="#000000"
     borderopacity="0.25"
     inkscape:showpageshadow="2"
     inkscape:pageopacity="0.0"
     inkscape:pagecheckerboard="0"
     inkscape:deskcolor="#d1d1d1"
     inkscape:zoom="3.29"
     inkscape:cx="200"
     inkscape:cy="100.15198"
     inkscape:window-width="1920"
     inkscape:window-height="1009"
     inkscape:window-x="-8"
     inkscape:window-y="-8"
     inkscape:window-maximized="1"
     inkscape:current-layer="svg1" />
  <defs
     id="defs1" />
  <g
     id="layer1">
    <rect
       style="fill:#aa0000;stroke-width:0.264583"
       id="rect1"
       width="19.50284"
       height="28.414734"
       x="13.43242"
       y="15.628103" />
    <rect
       style="fill:#3effff;fill-opacity:1;stroke-width:0.264583"
       id="rect2"
       width="21.569365"
       height="28.156418"
       x="72.586731"
       y="15.240631" />
    <path
       style="fill:#000000;fill-opacity:1;stroke-width:0.264583"
       d="m 15.111472,21.181892 c 1.839449,-0.516708 3.720913,0.383707 4.907999,1.80821 1.211344,1.453613 -0.36903,-0.362881 0.387474,0.64579 0.21163,0.282173 0.390203,0.266504 0.516631,0.645789 0.04084,0.12253 -0.02533,0.260824 0,0.387474 0.08225,0.41124 0.222841,0.610314 0.516632,0.904105"
       id="path4" />
    <path
       style="fill:#000000;fill-opacity:1;stroke-width:0.264583"
       d="m 27.123154,24.798313 c -0.04305,-0.172211 -0.218599,-0.363302 -0.129156,-0.516632 0.963668,-1.652003 3.296499,-1.997158 4.907999,-2.583157 0.291764,-0.106097 0.516631,-0.344421 0.774946,-0.516632"
       id="path5" />
    <path
       style="fill:#000000;fill-opacity:1;stroke-width:0.264583"
       d="m 19.631998,27.252313 c -0.129158,0.215263 -0.387474,0.394751 -0.387474,0.64579 0,0.417647 1.235076,0.258315 1.420737,0.258315 0.270558,0 0.76615,-0.783743 0.516631,-1.033264 -0.06089,-0.06089 -0.19743,0.06089 -0.258316,0 -0.03044,-0.03044 0.03582,-0.105275 0,-0.129156 -0.332455,-0.221639 -1.143375,-0.522981 -1.549894,-0.387475 -0.115522,0.03851 -0.172211,0.17221 -0.258316,0.258316"
       id="path6" />
    <path
       style="fill:#000000;fill-opacity:1;stroke-width:0.264583"
       d="m 28.027259,26.477364 c -0.258315,0.172212 -0.56869,0.284594 -0.774946,0.516634 -0.15403,0.173283 -0.194625,0.422862 -0.258315,0.645787 -0.339286,1.1875 2.928183,-0.387472 1.033261,-0.387472 -0.215262,0 -0.430524,0 -0.645789,0"
       id="path7" />
    <path
       style="fill:#000000;fill-opacity:1;stroke-width:0.264583"
       d="m 19.373682,39.263994 c 1.076315,-1.205473 1.90358,-2.691744 3.228947,-3.61642 1.545936,-1.078561 4.49435,0.357127 5.812105,1.16242 0.231949,0.141748 1.072964,0.675439 1.16242,1.033264 0.133646,0.53458 0,1.257613 0,1.808211"
       id="path8" />
    <path
       style="fill:#000000;fill-opacity:1;stroke-width:0.264583"
       d="m 77.365571,37.843258 c 0.04305,-0.645789 -0.17367,-1.365361 0.129156,-1.937369 0.513569,-0.970071 1.31758,-1.79542 2.195684,-2.453999 0.635855,-0.476891 2.20562,-0.21195 2.841475,0 0.329287,0.109765 0.593648,0.361404 0.904105,0.516633 1.196318,0.598159 3.229594,1.424617 3.487261,2.97063 0.03924,0.235421 0,0.531072 0,0.774946"
       id="path9" />
    <path
       style="fill:#000000;fill-opacity:1;stroke-width:0.264583"
       d="m 74.265781,17.694629 c 1.333955,1.667445 0.540126,1.045011 2.324841,1.937369 0.565404,0.282702 1.64266,1.033263 2.324843,1.033263 0.02358,0 0.09407,-0.696184 -0.387474,-1.033263 -0.986073,-0.690251 -2.185487,-0.769849 -3.228948,-1.291579 -0.363279,-0.181639 -0.688841,-0.430527 -1.033262,-0.64579 z"
       id="path10" />
    <path
       style="fill:#000000;fill-opacity:1;stroke-width:0.264583"
       d="m 88.602306,17.307156 c -0.64579,0.387473 -1.310741,0.744668 -1.93737,1.162421 -1.100576,0.733717 -2.633964,2.015719 -2.195684,2.453999 0.21758,0.21758 1.224997,-0.171319 1.420738,-0.258315 0.663679,-0.294969 1.713556,-0.583866 2.195685,-1.162421 0.123259,-0.147911 0.172209,-0.344421 0.258315,-0.516632 0.17221,-0.215263 0.337228,-0.436484 0.516631,-0.645789 0.283297,-0.330515 0.904105,-0.851315 0.904105,-1.291579"
       id="path11" />
    <path
       style="fill:#000000;fill-opacity:1;stroke-width:0.264583"
       d="m 77.365571,21.569366 c -0.344422,-0.04305 -0.687044,-0.153888 -1.033264,-0.129158 -0.271598,0.0194 -0.568212,0.08111 -0.774946,0.258316 -0.09219,0.07902 -0.190919,0.854697 -0.129159,0.904105 0.21273,0.170184 2.324734,0.193791 2.453999,0.129158 0.249817,-0.124909 1.018847,-1.291579 0.129159,-1.291579"
       id="path12" />
    <path
       style="fill:#000000;fill-opacity:1;stroke-width:0.264583"
       d="m 86.148306,21.31105 c -0.301369,0.215263 -0.658056,0.368985 -0.904105,0.645789 -0.929561,1.045754 2.190734,0.382526 1.549894,-0.258315 -0.177511,-0.177511 -0.430527,-0.258316 -0.645789,-0.387474 z"
       id="path13" />
    <path
       style="fill:#000000;fill-opacity:1;stroke-width:0.264583"
       d="m 13.044946,30.99789 c -0.609757,0.816276 -0.863164,1.807884 -1.291579,2.712318 -0.89841,1.896644 -1.356281,2.26088 -1.8082104,4.520525 -0.033773,0.168865 -0.088602,0.368961 0,0.51663 0.4461604,0.743601 1.6182404,-0.864401 1.8082104,-1.033264 0.590436,-0.52483 0.744195,-0.465378 1.162421,-1.16242 0.796778,-1.327962 0.377768,-3.91505 1.033263,-5.553789"
       id="path16" />
    <path
       style="fill:#000000;fill-opacity:1;stroke-width:0.264583"
       d="m 32.031154,32.676943 c 0.645789,1.334633 1.131911,2.759097 1.937369,4.003895 0.17812,0.275278 0.83144,0.7072 0.904105,0.387474 0.348099,-1.531638 -0.128326,-4.179488 -1.679054,-5.166315 -0.276619,-0.176032 -0.602737,-0.258318 -0.904105,-0.387474"
       id="path17" />
    <path
       style="fill:#000000;fill-opacity:1;stroke-width:0.264583"
       d="m 72.586727,32.160313 c -1.360429,1.884309 -2.619565,3.901175 -3.487261,6.07042 -0.21191,0.52977 -0.779814,1.925203 -0.516633,2.583156 0.0587,0.146735 0.512117,-0.125545 0.516633,-0.129156 0.608798,-0.48704 0.963607,-1.198708 1.420736,-1.808211 0.20175,-0.269001 0.46396,-0.492101 0.64579,-0.774948 0.673854,-1.048219 0.396962,-0.87901 0.774946,-1.937367 0.110278,-0.308779 0.297399,-0.588843 0.387474,-0.904105 0.278596,-0.975082 0.258315,-2.108901 0.258315,-3.099789 z"
       id="path19" />
    <path
       style="fill:#000000;fill-opacity:1;stroke-width:0.264583"
       d="m 93.510305,32.418628 c 0,0.688843 -0.221991,1.414434 0,2.066526 0.484013,1.421786 1.17461,2.795494 2.066526,4.003894 0.228536,0.309631 1.871069,1.905939 2.841474,1.420736 0.158768,-0.07939 0.0861,-0.344421 0.129156,-0.516631 0.04305,-0.172209 0.129159,-0.339122 0.129159,-0.516631 0,-0.432673 -1.03e-4,-0.878601 -0.129159,-1.291579 -0.0926,-0.296325 -0.339915,-0.519692 -0.516631,-0.774949 -1.017037,-1.469051 -2.376797,-2.604926 -3.745579,-3.745576 -2.631337,-2.192782 1.447451,1.183791 -1.80821,-1.420739 -0.09509,-0.07607 -0.149399,-0.203856 -0.258315,-0.258315 -0.08015,-0.04008 -0.402196,0 -0.516631,0"
       id="path20" />
    <path
       style="font-weight:bold;font-size:12.3472px;font-family:'Comic Sans MS';-inkscape-font-specification:'Comic Sans MS Bold';fill:#ffffff;stroke:#000000;stroke-width:0.565"
       d="m 17.389697,16.303111 q -0.711411,0.313503 -2.200551,0.560688 -1.362533,0.229099 -2.236724,0.229099 -1.477082,0 -1.477082,-1.296215 0,0.102491 0.120578,-1.911164 0.156751,-2.616545 0.156751,-5.8239232 0,-0.3436476 0.235128,-0.5848039 0.241156,-0.2411562 0.60289,-0.2411562 0.361735,0 0.602891,0.2411562 0.241156,0.2411563 0.241156,0.5848039 0,3.2134072 -0.16278,5.9203862 -0.05426,0.482312 -0.114549,1.477082 1.42885,-0.02412 3.665575,-0.699353 0.138665,-0.0422 0.265272,-0.0422 0.379821,0 0.614948,0.277329 0.211012,0.247185 0.211012,0.55466 0,0.518486 -0.524515,0.753613 z m 8.054619,0.409966 Q 24.968032,16.69499 24.48572,15.5917 q -0.319532,-0.711411 -0.548631,-1.639863 -0.446139,0.06632 -1.458995,0.132636 -0.952568,0.06632 -1.458996,0.156752 -0.277329,0.66318 -0.964625,1.995568 -0.265272,0.434081 -0.735526,0.434081 -0.33159,0 -0.596862,-0.223069 -0.265272,-0.229099 -0.265272,-0.578775 0,-0.307475 0.88022,-2.086002 -0.0844,-0.186896 -0.07235,-0.349677 0.02412,-0.289387 0.584803,-0.452167 0.856105,-1.483111 1.905135,-3.0747428 1.507227,-2.2849555 1.856903,-2.2849555 0.66318,0 0.886249,0.8018445 0.120578,0.645093 0.379821,1.9352788 0.367764,1.736325 0.898308,3.97305 0.0422,0.168809 0.307474,0.795815 0.21704,0.518486 0.21704,0.777729 0,0.349677 -0.265271,0.584804 -0.259243,0.235127 -0.590833,0.22307 z m -2.248782,-6.185658 q -0.470255,0.807873 -1.296215,2.20055 0.2713,-0.06029 0.844047,-0.09646 0.675237,-0.0422 0.850075,-0.06632 -0.144693,-0.783758 -0.397907,-2.03777 z m 7.186455,6.372554 q -1.531342,0 -2.411562,-0.681267 -0.741556,-0.566717 -0.741556,-1.308272 0,-0.379822 0.229099,-0.627007 0.229098,-0.253214 0.633035,-0.253214 0.542601,0 0.795815,0.55466 0.343648,0.741555 1.555458,0.741555 1.036972,0 2.007626,-0.452168 1.006828,-0.464226 1.006828,-1.018885 0,-0.759642 -0.627007,-1.000799 -0.446139,-0.174838 -1.790585,-0.204982 -1.043001,-0.02412 -1.868961,-0.391879 -1.115348,-0.5004 -1.097261,-1.43488 0.01809,-1.1756368 1.254013,-2.1523196 1.235925,-0.9827118 2.725065,-0.9827118 0.590833,0 1.458996,0.2713008 1.079174,0.3376188 1.079174,0.777729 0,0.3135031 -0.217041,0.5546594 -0.241156,0.2713007 -0.620977,0.2713007 -0.283359,0 -0.850076,-0.1205781 -0.560688,-0.1205781 -0.850076,-0.1205781 -0.777729,0.00603 -1.477082,0.3737922 -0.723469,0.3737925 -0.723469,0.8139025 0,0.229098 0.217041,0.379821 0.22307,0.144694 0.66318,0.204983 0.7717,0.0422 1.537371,0.0844 1.338417,0.102492 2.116146,0.753614 0.856105,0.723469 0.856105,2.001597 0,1.555458 -1.772499,2.357302 -1.350475,0.60892 -3.0868,0.60892 z m 11.8046,-8.0968217 q -0.120578,0 -0.253214,-0.036173 Q 40.956692,8.501706 40.03427,8.501706 q -0.452168,0 -0.970654,0.072347 -0.518486,0.072347 -1.10329,0.2170406 0,0.8018446 -0.05426,2.3814185 0.337619,-0.02412 2.357302,-0.22307 1.151521,-0.114549 1.458996,-0.114549 0.355705,0 0.608919,0.229098 0.253214,0.22307 0.253214,0.596862 0,0.71744 -0.765671,0.813902 -0.482312,0.03617 -1.440909,0.120578 -0.856104,0.09646 -2.580371,0.235128 -0.0422,0.765671 -0.0422,1.235926 0,1.181665 0.138665,1.344446 0.06632,0.07838 0.759642,0.07838 0.373792,0 1.127406,-0.01809 0.753613,-0.01809 1.127405,-0.01809 0.120578,0 0.355706,-0.03617 0.235127,-0.03617 0.349676,-0.03617 0.349677,0 0.596862,0.198954 0.283359,0.22307 0.283359,0.627006 0,0.675238 -0.705382,0.807874 -0.602891,0.114549 -2.501997,0.114549 -1.965423,0 -2.562285,-0.530544 -0.657151,-0.584804 -0.657151,-2.53214 0,-0.807874 0.11455,-2.423621 0.120578,-1.621776 0.120578,-2.4236201 0,-0.2110117 -0.06029,-0.6209774 -0.06029,-0.4159945 -0.06029,-0.6270063 0,-0.9163937 0.844046,-0.9163937 0.265272,0 0.488342,0.1507226 0.699353,-0.1748383 1.326359,-0.2592429 0.633035,-0.090434 1.193724,-0.090434 1.519284,0 2.429649,0.3496765 0.554659,0.2110118 0.554659,0.7656711 0,0.3135032 -0.21704,0.5546594 -0.241156,0.2773297 -0.614949,0.2773297 z m 7.813464,7.8014047 q -0.325561,0 -0.596862,-0.253214 -1.826759,-1.712209 -4.015252,-2.375389 0.06632,1.754412 0.06632,1.947337 0,0.343648 -0.241156,0.584804 -0.241156,0.235127 -0.602891,0.235127 -0.361734,0 -0.60289,-0.235127 -0.241157,-0.241156 -0.241157,-0.584804 0,-0.452168 0.01206,-1.350475 0.01206,-0.904336 0.01206,-1.356504 l 0.01206,-4.8653276 q 0,-0.391879 0.235127,-0.711411 0.307474,-0.4099656 0.850076,-0.3677633 1.465024,0.1085203 1.501198,0.1145492 0.844047,0.1024914 1.434879,0.4039368 2.574343,1.2962148 2.574343,3.2134069 0,0.789787 -0.542601,1.398706 -0.536573,0.602891 -1.615747,1.018886 1.59766,0.892278 2.405534,1.820729 0.211011,0.241157 0.211011,0.536573 0,0.337619 -0.253214,0.584804 -0.253214,0.241156 -0.60289,0.241156 z M 46.135524,9.020192 q -0.04823,-0.00603 -0.705382,-0.048231 V 12.17331 q 0.150722,0.006 0.265271,0.006 1.477083,0 2.188493,-0.367763 0.307475,-0.156752 0.560689,-0.415995 0.259243,-0.259243 0.259243,-0.391879 0,-0.675237 -0.856105,-1.3022436 Q 47.033831,9.1106256 46.135524,9.020192 Z m 16.989457,1.091232 q -0.542601,0 -0.801844,-0.5727461 -0.120578,-0.2713008 -0.241157,-0.3255609 -0.09043,-0.042202 -0.476283,-0.042202 -0.759642,0 -1.754412,1.1816654 -1.392677,1.651921 -1.392677,3.092829 0,0.657151 0.44011,1.127406 0.44011,0.470255 1.055058,0.470255 0.596862,0 1.211811,-0.313504 0.21704,-0.114549 0.916393,-0.590832 0.470255,-0.313504 0.711411,-0.313504 0.361735,0 0.614949,0.265272 0.235127,0.247185 0.235127,0.566717 0,0.355706 -0.313503,0.620978 -1.657949,1.398706 -3.376188,1.398706 -1.356503,0 -2.290984,-0.988741 -0.892278,-0.952567 -0.892278,-2.242753 0,-2.019683 1.766469,-4.1237717 1.501198,-1.7845563 3.068714,-1.7845563 0.265272,0 0.476283,0.018087 0.217041,0.018087 0.379822,0.05426 0.265271,-0.259243 0.639064,-0.259243 0.614948,0 0.759642,0.705382 0.102491,0.5064282 0.102491,1.1816657 0,0.3014453 -0.174838,0.5486305 -0.229098,0.3255609 -0.66318,0.3255609 z M 73.157079,8.1701162 q -0.120578,0.4401101 -0.120578,0.7656711 0,0.1688094 -0.03617,0.5245148 -0.03014,0.3496766 -0.03014,0.518486 0,0.5727459 -0.06029,1.7001519 -0.06029,1.127405 -0.06029,1.700151 0,0.44011 0.06632,1.314302 0.06632,0.874191 0.06632,1.314302 0,0.331589 -0.235127,0.560688 -0.235128,0.229098 -0.584804,0.229098 -0.355706,0 -0.614949,-0.229098 -0.259243,-0.22307 -0.259243,-0.548631 0,-0.44011 -0.0422,-1.32033 -0.03617,-0.880221 -0.03617,-1.320331 0,-0.343647 0.01206,-0.608919 -0.946538,0.0422 -2.339215,0.295416 -1.15755,0.211012 -2.3151,0.428053 -0.01206,0.409965 -0.08441,1.368561 -0.06029,0.844047 -0.06029,1.38062 0,0.33159 -0.235127,0.560688 -0.235128,0.229099 -0.584804,0.229099 -0.349677,0 -0.584804,-0.229099 -0.235128,-0.229098 -0.235128,-0.560688 0,-0.60892 0.102492,-1.82073 0.10852,-1.21181 0.10852,-1.82073 0,-0.7717 0.03617,-2.321129 0.03617,-1.5554574 0.03617,-2.3271575 0,-0.3315898 0.235127,-0.5606883 0.235128,-0.2290984 0.584804,-0.2290984 0.349677,0 0.584804,0.2290984 0.235127,0.2290985 0.235127,0.5606883 0,0.4581969 -0.03617,1.3806196 -0.03014,0.9163939 -0.03014,1.3745909 0,0.150722 -0.0422,0.578775 -0.03617,0.397908 -0.03014,0.608919 l 2.3151,-0.434081 q 1.356504,-0.241156 2.339215,-0.27733 0.02412,-0.403936 0.07838,-2.1704059 0.01206,-0.4642258 0.283359,-1.0671165 0.337619,-0.7415555 0.765671,-0.7415555 0.319532,0 0.566717,0.2110118 0.265272,0.2290984 0.265272,0.5727461 0,0.090434 -0.02412,0.1808672 z m 7.12014,0.6330351 q -0.120578,0 -0.253214,-0.036173 -0.976683,-0.2652719 -1.899106,-0.2652719 -0.452168,0 -0.970654,0.072347 -0.518486,0.072347 -1.103289,0.2170406 0,0.8018446 -0.05426,2.3814185 0.337619,-0.02412 2.357303,-0.22307 1.151521,-0.114549 1.458995,-0.114549 0.355706,0 0.60892,0.229098 0.253214,0.22307 0.253214,0.596862 0,0.71744 -0.765671,0.813902 -0.482313,0.03617 -1.440909,0.120578 -0.856105,0.09646 -2.580372,0.235128 -0.0422,0.765671 -0.0422,1.235926 0,1.181665 0.138665,1.344446 0.06632,0.07838 0.759642,0.07838 0.373792,0 1.127405,-0.01809 0.753614,-0.01809 1.127406,-0.01809 0.120578,0 0.355705,-0.03617 0.235128,-0.03617 0.349677,-0.03617 0.349676,0 0.596862,0.198954 0.283358,0.22307 0.283358,0.627006 0,0.675238 -0.705382,0.807874 -0.60289,0.114549 -2.501996,0.114549 -1.965424,0 -2.562285,-0.530544 -0.657151,-0.584804 -0.657151,-2.53214 0,-0.807874 0.114549,-2.423621 0.120578,-1.621776 0.120578,-2.4236201 0,-0.2110117 -0.06029,-0.6209774 -0.06029,-0.4159945 -0.06029,-0.6270063 0,-0.9163937 0.844047,-0.9163937 0.265272,0 0.488341,0.1507226 0.699354,-0.1748383 1.32636,-0.2592429 0.633035,-0.090434 1.193723,-0.090434 1.519285,0 2.42965,0.3496765 0.554659,0.2110118 0.554659,0.7656711 0,0.3135032 -0.217041,0.5546594 -0.241156,0.2773297 -0.614948,0.2773297 z m 4.46742,8.0968217 q -1.531342,0 -2.411562,-0.681267 -0.741556,-0.566717 -0.741556,-1.308272 0,-0.379822 0.229099,-0.627007 0.229098,-0.253214 0.633035,-0.253214 0.542601,0 0.795815,0.55466 0.343648,0.741555 1.555458,0.741555 1.036972,0 2.007626,-0.452168 1.006827,-0.464226 1.006827,-1.018885 0,-0.759642 -0.627006,-1.000799 -0.446139,-0.174838 -1.790585,-0.204982 -1.043001,-0.02412 -1.868961,-0.391879 -1.115348,-0.5004 -1.097261,-1.43488 0.01809,-1.1756368 1.254013,-2.1523196 1.235925,-0.9827118 2.725065,-0.9827118 0.590833,0 1.458996,0.2713008 1.079174,0.3376188 1.079174,0.777729 0,0.3135031 -0.217041,0.5546594 -0.241156,0.2713007 -0.620977,0.2713007 -0.283359,0 -0.850076,-0.1205781 -0.560688,-0.1205781 -0.850076,-0.1205781 -0.777729,0.00603 -1.477082,0.3737922 -0.723469,0.3737925 -0.723469,0.8139025 0,0.229098 0.217041,0.379821 0.22307,0.144694 0.66318,0.204983 0.7717,0.0422 1.537371,0.0844 1.338417,0.102492 2.116146,0.753614 0.856105,0.723469 0.856105,2.001597 0,1.555458 -1.772499,2.357302 -1.350475,0.60892 -3.0868,0.60892 z m 8.561051,0 q -1.531343,0 -2.411563,-0.681267 -0.741556,-0.566717 -0.741556,-1.308272 0,-0.379822 0.229099,-0.627007 0.229098,-0.253214 0.633035,-0.253214 0.542602,0 0.795816,0.55466 0.343647,0.741555 1.555458,0.741555 1.036972,0 2.007625,-0.452168 1.006828,-0.464226 1.006828,-1.018885 0,-0.759642 -0.627006,-1.000799 -0.44614,-0.174838 -1.790586,-0.204982 -1.043,-0.02412 -1.868961,-0.391879 -1.115347,-0.5004 -1.097261,-1.43488 0.01809,-1.1756368 1.254013,-2.1523196 1.235926,-0.9827118 2.725066,-0.9827118 0.590832,0 1.458995,0.2713008 1.079174,0.3376188 1.079174,0.777729 0,0.3135031 -0.21704,0.5546594 -0.241157,0.2713007 -0.620978,0.2713007 -0.283358,0 -0.850076,-0.1205781 -0.560688,-0.1205781 -0.850075,-0.1205781 -0.777729,0.00603 -1.477082,0.3737922 -0.723469,0.3737925 -0.723469,0.8139025 0,0.229098 0.21704,0.379821 0.22307,0.144694 0.66318,0.204983 0.7717,0.0422 1.537371,0.0844 1.338418,0.102492 2.116146,0.753614 0.856105,0.723469 0.856105,2.001597 0,1.555458 -1.772498,2.357302 -1.350475,0.60892 -3.0868,0.60892 z"
       id="text20"
       aria-label="LASER CHESS" />
    <rect
       style="fill:#eb0000;fill-opacity:1;stroke:none;stroke-width:0.564999;stroke-dasharray:none"
       id="rect23"
       width="20.277788"
       height="1.162421"
       x="37.197472"
       y="24.410841" />
    <rect
       style="fill:#00ffff;fill-opacity:1;stroke:none;stroke-width:0.564999;stroke-dasharray:none"
       id="rect24"
       width="10.849262"
       height="1.0332631"
       x="42.880417"
       y="34.226837" />
    <rect
       style="fill:#00ffff;fill-opacity:1;stroke:none;stroke-width:0.564999;stroke-dasharray:none"
       id="rect25"
       width="14.336525"
       height="0.64578938"
       x="54.892097"
       y="19.890312" />
    <rect
       style="fill:#ff0000;fill-opacity:1;stroke:none;stroke-width:0.564999;stroke-dasharray:none"
       id="rect26"
       width="13.561577"
       height="1.162421"
       x="54.375469"
       y="39.780624" />
    <rect
       style="fill:#ff0000;fill-opacity:1;stroke:none;stroke-width:0.564999;stroke-dasharray:none"
       id="rect27"
       width="6.8453674"
       height="0.77494729"
       x="38.35989"
       y="39.909786" />
    <rect
       style="fill:#00ffff;fill-opacity:1;stroke:none;stroke-width:0.564999;stroke-dasharray:none"
       id="rect28"
       width="16.015577"
       height="0.90410519"
       x="51.017365"
       y="28.67305" />
  </g>
</svg>
