<?xml version="1.0" encoding="UTF-8" standalone="no"?>
<!-- Uploaded to: SVG Repo, www.svgrepo.com, Transformed by: SVG Repo Mixer Tools -->

<svg
   width="800px"
   height="800px"
   viewBox="0 0 512.00 512.00"
   fill="#000000"
   stroke="#000000"
   stroke-width="38.4"
   version="1.1"
   id="svg1"
   sodipodi:docname="clockwise_arrow.svg"
   inkscape:version="1.3.2 (091e20e, 2023-11-25, custom)"
   xmlns:inkscape="http://www.inkscape.org/namespaces/inkscape"
   xmlns:sodipodi="http://sodipodi.sourceforge.net/DTD/sodipodi-0.dtd"
   xmlns="http://www.w3.org/2000/svg"
   xmlns:svg="http://www.w3.org/2000/svg">
  <defs
     id="defs1" />
  <sodipodi:namedview
     id="namedview1"
     pagecolor="#ffffff"
     bordercolor="#000000"
     borderopacity="0.25"
     inkscape:showpageshadow="2"
     inkscape:pageopacity="0.0"
     inkscape:pagecheckerboard="0"
     inkscape:deskcolor="#d1d1d1"
     inkscape:zoom="1.01625"
     inkscape:cx="400.492"
     inkscape:cy="400"
     inkscape:window-width="1920"
     inkscape:window-height="1009"
     inkscape:window-x="-8"
     inkscape:window-y="-8"
     inkscape:window-maximized="1"
     inkscape:current-layer="svg1" />
  <g
     id="SVGRepo_bgCarrier"
     stroke-width="0"
     transform="matrix(-1,0,0,1,512.00281,0)" />
  <g
     id="SVGRepo_tracerCarrier"
     stroke-linecap="round"
     stroke-linejoin="round"
     transform="matrix(-1,0,0,1,512.00281,0)" />
  <g
     id="SVGRepo_iconCarrier"
     transform="matrix(-1,0,0,1,512.00281,0)">
    <path
       fill="#000000"
       d="M 263.09,50 C 251.208,49.993 239.215,51.018 227.233,53.13 142.026,68.156 75.156,135.026 60.13,220.233 45.108,305.44 85.075,391.15 160.005,434.41 c 32.782,18.927 69.254,27.996 105.463,27.553 46.555,-0.57 92.675,-16.865 129.957,-48.15 L 364.57,377.045 c -50.95,42.75 -122.968,49.05 -180.566,15.797 -57.597,-33.254 -88.152,-98.777 -76.603,-164.274 11.55,-65.497 62.672,-116.62 128.17,-128.168 51.656,-9.108 103.323,7.98 139.17,43.862 L 327,192 H 455 V 64 l -46.34,46.342 C 370.242,71.962 317.83,50.03 263.09,50 Z"
       id="path1" />
  </g>
</svg>
