<?xml version="1.0" encoding="UTF-8" standalone="no"?>
<!-- Uploaded to: SVG Repo, www.svgrepo.com, Transformed by: SVG Repo Mixer Tools -->

<svg
   fill="#ffffff"
   version="1.1"
   id="Capa_1"
   width="800px"
   height="800px"
   viewBox="0 0 519.48 519.479"
   xml:space="preserve"
   stroke="#ffffff"
   sodipodi:docname="next.svg"
   inkscape:version="1.3.2 (091e20e, 2023-11-25, custom)"
   xmlns:inkscape="http://www.inkscape.org/namespaces/inkscape"
   xmlns:sodipodi="http://sodipodi.sourceforge.net/DTD/sodipodi-0.dtd"
   xmlns="http://www.w3.org/2000/svg"
   xmlns:svg="http://www.w3.org/2000/svg"><defs
   id="defs2" /><sodipodi:namedview
   id="namedview2"
   pagecolor="#ffffff"
   bordercolor="#000000"
   borderopacity="0.25"
   inkscape:showpageshadow="2"
   inkscape:pageopacity="0.0"
   inkscape:pagecheckerboard="0"
   inkscape:deskcolor="#d1d1d1"
   inkscape:zoom="1.01625"
   inkscape:cx="400"
   inkscape:cy="400"
   inkscape:window-width="1920"
   inkscape:window-height="1009"
   inkscape:window-x="-8"
   inkscape:window-y="-8"
   inkscape:window-maximized="1"
   inkscape:current-layer="Capa_1" />

<g
   id="SVGRepo_bgCarrier"
   stroke-width="0"
   transform="matrix(-1,0,0,1,519.479,0)" />

<g
   id="SVGRepo_tracerCarrier"
   stroke-linecap="round"
   stroke-linejoin="round"
   transform="matrix(-1,0,0,1,519.479,0)" />

<g
   id="SVGRepo_iconCarrier"
   transform="matrix(-1,0,0,1,519.479,0)"> <g
   id="g2"> <g
   id="g1"> <path
   d="M 388.41,11.291 195.966,203.729 V 20.08 C 195.966,8.991 186.976,0 175.886,0 h -60.233 c -11.09,0 -20.08,8.99 -20.08,20.08 v 479.319 c 0,11.089 8.99,20.079 20.08,20.079 h 60.233 c 11.089,0 20.08,-8.99 20.08,-20.079 V 315.749 L 388.41,508.192 c 19.602,19.603 35.496,13.023 35.496,-14.7 V 25.991 c 0,-27.723 -15.895,-34.308 -35.496,-14.7 z"
   id="path1" /> </g> </g> </g>

</svg>
