<?xml version="1.0" encoding="UTF-8" standalone="no"?>
<svg
   version="1.1"
   id="Layer_1"
   x="0px"
   y="0px"
   width="100%"
   viewBox="0 0 2000 2000"
   enable-background="new 0 0 2000 2000"
   xml:space="preserve"
   sodipodi:docname="phpE0gpKi.svg"
   inkscape:version="1.3.2 (091e20e, 2023-11-25, custom)"
   xmlns:inkscape="http://www.inkscape.org/namespaces/inkscape"
   xmlns:sodipodi="http://sodipodi.sourceforge.net/DTD/sodipodi-0.dtd"
   xmlns="http://www.w3.org/2000/svg"
   xmlns:svg="http://www.w3.org/2000/svg"><defs
   id="defs9" /><sodipodi:namedview
   id="namedview9"
   pagecolor="#ffffff"
   bordercolor="#000000"
   borderopacity="0.25"
   inkscape:showpageshadow="2"
   inkscape:pageopacity="0.0"
   inkscape:pagecheckerboard="0"
   inkscape:deskcolor="#d1d1d1"
   inkscape:zoom="0.4065"
   inkscape:cx="1000"
   inkscape:cy="1000"
   inkscape:window-width="1920"
   inkscape:window-height="1009"
   inkscape:window-x="-8"
   inkscape:window-y="-8"
   inkscape:window-maximized="1"
   inkscape:current-layer="Layer_1" />
<path
   fill="#81B64C"
   opacity="1.000000"
   stroke="none"
   d=" M1045.000000,2001.000000   C1015.979126,2001.000000 986.958191,2001.000000 957.161987,2000.716187   C946.280457,1999.934204 936.141052,1999.793945 926.075256,1998.859863   C907.784973,1997.162354 889.486206,1995.379028 871.287598,1992.917236   C851.115723,1990.188477 830.920532,1987.314697 810.975281,1983.309692   C787.257019,1978.547119 763.708801,1972.852173 740.240723,1966.949707   C706.063904,1958.353882 672.704590,1947.078369 639.870239,1934.335938   C600.029846,1918.874512 561.063660,1901.405640 523.868469,1880.302002   C499.622955,1866.545532 475.300964,1852.764771 452.123566,1837.327881   C426.754730,1820.431274 402.155670,1802.263672 378.168091,1783.442871   C356.799561,1766.677246 335.858551,1749.163208 316.299500,1730.346802   C292.472046,1707.424194 269.828461,1683.211914 247.551117,1658.757324   C232.389969,1642.114624 218.078232,1624.591675 204.579590,1606.568848   C188.678497,1585.338379 173.175919,1563.699585 159.120819,1541.224487   C141.792282,1513.514893 125.530426,1485.087769 109.966698,1456.343018   C99.699959,1437.381226 91.183937,1417.443604 82.395599,1397.714966   C62.555489,1353.176758 46.833164,1307.135254 34.297489,1260.065674   C21.447416,1211.815674 11.717390,1162.904297 7.006877,1113.123779   C4.978643,1091.689453 3.657244,1070.188477 1.966141,1048.721558   C1.867040,1047.463501 1.332102,1046.239746 0.999995,1045.000000   C1.000000,1015.979126 1.000000,986.958191 1.283736,957.161987   C2.065791,946.280457 2.206219,936.140991 3.140464,926.075195   C4.838068,907.784790 6.621579,889.485962 9.083456,871.287292   C11.812312,851.115112 14.685868,830.919617 18.690926,810.974121   C23.453548,787.255859 29.148762,763.707642 35.051006,740.239441   C43.646523,706.062439 54.922188,672.703064 67.664856,639.868774   C83.126419,600.028687 100.593636,561.061768 121.698311,523.867188   C135.455231,499.622223 149.235397,475.300201 164.672241,452.123016   C181.568710,426.754242 199.736099,402.155121 218.556686,378.167603   C235.322617,356.798889 252.837463,335.858215 271.653961,316.298798   C294.576752,292.470978 318.788330,269.826263 343.242920,247.548508   C359.885651,232.387238 377.409424,218.076111 395.432465,204.577438   C416.662933,188.676468 438.301636,173.173752 460.776611,159.118698   C488.486053,141.790192 516.913269,125.528481 545.657959,109.965004   C564.619629,99.698418 584.557251,91.182861 604.285767,82.394699   C648.823853,62.555012 694.865051,46.832401 741.934448,34.297066   C790.184448,21.447292 839.095581,11.717138 888.875977,7.006645   C910.310303,4.978407 931.811401,3.657110 953.278320,1.966082   C954.536438,1.866976 955.760254,1.332092 957.000000,1.000001   C986.020935,1.000000 1015.041809,1.000000 1044.838013,1.283736   C1061.646362,2.703772 1077.707764,3.541842 1093.704834,5.057858   C1110.673584,6.665968 1127.699463,8.217225 1144.489990,11.043077   C1174.050171,16.018036 1203.619507,21.180582 1232.874390,27.665716   C1268.713989,35.610519 1303.775879,46.485809 1338.359253,58.902508   C1386.464600,76.174187 1433.188965,96.532013 1477.773682,121.523132   C1502.239502,135.236969 1526.421021,149.541107 1550.049561,164.644791   C1581.381104,184.672333 1611.285278,206.781265 1639.517334,231.037598   C1656.378174,245.523941 1673.492065,259.792542 1689.440918,275.244232   C1708.908936,294.105377 1727.577393,313.823517 1746.012695,333.707672   C1758.972534,347.685944 1771.789185,361.942688 1783.210571,377.169495   C1803.810913,404.633545 1824.356445,432.246033 1842.983521,461.051849   C1860.817627,488.631134 1876.945068,517.400940 1892.388916,546.410645   C1904.243652,568.678528 1914.519043,591.858154 1924.354004,615.115540   C1945.743286,665.696106 1962.543701,717.841064 1975.016724,771.339294   C1984.053833,810.100586 1991.316895,849.191162 1994.994629,888.857361   C1996.982910,910.302002 1998.342285,931.804871 2000.033936,953.277649   C2000.133057,954.536011 2000.667969,955.760010 2001.000000,957.000000   C2001.000000,986.020935 2001.000000,1015.041809 2000.716064,1044.837891   C1999.958130,1052.890747 1999.560059,1060.174561 1998.994507,1067.445068   C1997.683838,1084.296875 1996.936646,1101.225220 1994.779541,1117.970459   C1991.691406,1141.942383 1988.238403,1165.910156 1983.713989,1189.645630   C1974.095947,1240.101318 1960.623779,1289.543335 1943.230469,1337.931763   C1925.881226,1386.197998 1905.503784,1433.091187 1880.441650,1477.832520   C1866.734375,1502.302612 1852.740356,1526.707886 1837.218628,1550.039917   C1820.422607,1575.287231 1802.352051,1599.765137 1783.618164,1623.621216   C1766.735229,1645.120605 1748.959961,1666.039795 1730.191040,1685.904175   C1710.553711,1706.687500 1689.594360,1726.267090 1668.582520,1745.690918   C1653.618408,1759.524170 1638.197388,1773.007324 1621.934570,1785.258545   C1595.845215,1804.912476 1569.280518,1823.995117 1542.207886,1842.269043   C1503.847290,1868.162109 1463.035156,1889.843384 1421.105225,1909.386108   C1409.366211,1914.857544 1397.456421,1919.981079 1385.499023,1924.962280   C1351.886719,1938.964478 1317.707520,1951.448608 1282.600708,1961.142334   C1258.141235,1967.896240 1233.645142,1974.848511 1208.771973,1979.690796   C1176.939209,1985.888306 1144.788452,1990.640137 1112.625488,1994.885742   C1091.795166,1997.635376 1070.697021,1998.351685 1049.722778,2000.027222   C1048.132812,2000.154297 1046.573608,2000.666870 1045.000000,2001.000000  M1418.960815,1547.102295   C1425.925537,1533.344116 1426.231323,1519.406128 1422.205200,1504.493042   C1397.096069,1411.486328 1372.404907,1318.366821 1347.605469,1225.276489   C1341.654785,1202.939209 1335.818604,1180.571411 1330.607178,1158.017578   C1337.497925,1152.512695 1344.419922,1147.046631 1351.274048,1141.496582   C1390.875366,1109.430542 1430.470947,1077.357300 1470.048706,1045.262207   C1520.878662,1004.042053 1571.736328,962.855652 1622.460205,921.505249   C1630.175049,915.216125 1638.629517,909.121826 1644.311768,901.195312   C1657.482788,882.822388 1658.370850,862.955627 1647.035156,842.297791   C1654.089722,830.236023 1656.263428,816.936523 1653.196167,803.722229   C1648.022583,781.433350 1633.605347,766.954407 1610.814941,763.207458   C1596.142578,760.795227 1581.048950,760.899719 1566.136475,760.004089   C1548.577148,758.949524 1531.010254,758.024719 1513.445679,757.059082   C1494.881348,756.038452 1476.315796,755.038147 1457.750977,754.025146   C1439.685425,753.039429 1421.620239,752.046387 1403.554688,751.061035   C1384.989624,750.048401 1366.424438,749.036621 1347.858887,748.033142   C1335.125854,747.344910 1322.391602,746.678162 1309.658569,745.990479   C1291.266602,744.997192 1272.874756,744.003784 1254.483887,742.991516   C1237.086060,742.033997 1219.694824,740.929260 1202.288086,740.182129   C1198.713135,740.028687 1197.178101,738.837158 1195.910400,735.534668   C1147.619385,609.732422 1099.217163,483.972870 1050.838257,358.204315   C1047.925537,350.632141 1044.016113,343.672821 1037.606934,338.546326   C1025.582520,328.928162 1012.411438,324.200043 996.467590,326.637299   C975.294067,329.873962 959.868225,339.440308 951.966675,360.079498   C924.012268,433.097717 895.875000,506.045959 867.791626,579.014832   C847.594910,631.491882 827.348633,683.949890 807.224915,736.454895   C806.021606,739.594543 804.710876,741.097778 800.985962,741.268799   C787.236267,741.899841 773.515320,743.129578 759.773499,743.968689   C741.889404,745.060669 723.996216,746.003357 706.106018,746.994568   C687.883911,748.004272 669.660828,748.997742 651.437866,749.993042   C633.048523,750.997498 614.659485,752.009888 596.268921,752.992188   C577.204529,754.010498 558.137878,754.986572 539.073303,756.001038   C526.960999,756.645508 514.850952,757.333069 502.739227,757.989441   C484.139343,758.997559 465.542328,760.065857 446.937622,760.976685   C430.167114,761.797791 413.373932,762.209717 396.615875,763.219055   C372.276489,764.685181 350.503632,784.605591 348.143463,813.750854   C347.264343,824.606873 351.685211,834.520203 356.287048,844.327332   C355.435974,845.750122 354.468811,847.116882 353.751312,848.604126   C343.035461,870.816345 349.420074,897.333496 369.564301,913.767700   C407.369263,944.609985 445.228973,975.385315 483.071014,1006.182129   C536.282410,1049.486694 589.481140,1092.806885 642.728333,1136.067383   C652.401184,1143.925903 662.280334,1151.530640 672.076111,1160.019165   C641.272827,1275.213013 610.553650,1390.429565 579.565063,1505.573608   C575.471130,1520.785522 576.378418,1535.007935 583.282104,1549.267578   C581.722168,1554.507080 579.794800,1559.669067 578.669678,1565.000366   C574.955261,1582.601074 577.492004,1599.009644 590.129517,1612.526978   C609.096375,1632.814087 637.373230,1634.737427 659.526672,1620.067383   C718.839172,1580.790527 778.840271,1542.553711 838.565552,1503.900269   C891.296753,1469.773071 944.041138,1435.666138 996.712830,1401.447388   C999.782593,1399.453125 1001.953064,1399.227051 1005.148804,1401.324951   C1027.429688,1415.952881 1049.864014,1430.346680 1072.237061,1444.834473   C1154.185547,1497.901611 1236.114380,1550.999268 1318.092407,1604.020874   C1329.133545,1611.161865 1339.909180,1618.971558 1351.675049,1624.685913   C1388.750244,1642.691895 1425.241821,1612.217041 1424.772461,1579.518921   C1424.620483,1568.925049 1420.945312,1558.381958 1418.960815,1547.102295  z"
   id="path1" />




<path
   fill="#FFFFFF"
   opacity="1.000000"
   stroke="none"
   d=" M1329.929810,1158.217651   C1335.818604,1180.571411 1341.654785,1202.939209 1347.605469,1225.276489   C1372.404907,1318.366821 1397.096069,1411.486328 1422.205200,1504.493042   C1426.231323,1519.406128 1425.925537,1533.344116 1418.635742,1547.635498   C1401.042969,1575.210693 1371.365356,1582.222778 1344.268799,1565.242554   C1324.114014,1552.612671 1304.288696,1539.457031 1284.316284,1526.536011   C1191.162598,1466.270630 1097.996338,1406.024658 1004.910400,1345.654663   C1001.872620,1343.684570 999.941101,1343.805908 997.029297,1345.693848   C898.758606,1409.416992 800.429688,1473.050415 702.111206,1536.699707   C686.331360,1546.915405 670.760254,1557.471069 654.737732,1567.290283   C631.986755,1581.233032 600.505127,1574.777344 583.870239,1548.822876   C576.378418,1535.007935 575.471130,1520.785522 579.565063,1505.573608   C610.553650,1390.429565 641.272827,1275.213013 672.258972,1159.291260   C675.807678,1146.051636 678.898621,1133.456177 682.672974,1121.068848   C684.207886,1116.031006 683.238342,1113.233032 679.123047,1109.893188   C581.617920,1030.760132 484.212097,951.504517 386.893341,872.142212   C376.248871,863.461853 364.350494,856.007690 356.843445,843.939819   C351.685211,834.520203 347.264343,824.606873 348.143463,813.750854   C350.503632,784.605591 372.276489,764.685181 396.615875,763.219055   C413.373932,762.209717 430.167114,761.797791 446.937622,760.976685   C465.542328,760.065857 484.139343,758.997559 502.739227,757.989441   C514.850952,757.333069 526.960999,756.645508 539.073303,756.001038   C558.137878,754.986572 577.204529,754.010498 596.268921,752.992188   C614.659485,752.009888 633.048523,750.997498 651.437866,749.993042   C669.660828,748.997742 687.883911,748.004272 706.106018,746.994568   C723.996216,746.003357 741.889404,745.060669 759.773499,743.968689   C773.515320,743.129578 787.236267,741.899841 800.985962,741.268799   C804.710876,741.097778 806.021606,739.594543 807.224915,736.454895   C827.348633,683.949890 847.594910,631.491882 867.791626,579.014832   C895.875000,506.045959 924.012268,433.097717 951.966675,360.079498   C959.868225,339.440308 975.294067,329.873962 996.467590,326.637299   C1012.411438,324.200043 1025.582520,328.928162 1037.606934,338.546326   C1044.016113,343.672821 1047.925537,350.632141 1050.838257,358.204315   C1099.217163,483.972870 1147.619385,609.732422 1195.910400,735.534668   C1197.178101,738.837158 1198.713135,740.028687 1202.288086,740.182129   C1219.694824,740.929260 1237.086060,742.033997 1254.483887,742.991516   C1272.874756,744.003784 1291.266602,744.997192 1309.658569,745.990479   C1322.391602,746.678162 1335.125854,747.344910 1347.858887,748.033142   C1366.424438,749.036621 1384.989624,750.048401 1403.554688,751.061035   C1421.620239,752.046387 1439.685425,753.039429 1457.750977,754.025146   C1476.315796,755.038147 1494.881348,756.038452 1513.445679,757.059082   C1531.010254,758.024719 1548.577148,758.949524 1566.136475,760.004089   C1581.048950,760.899719 1596.142578,760.795227 1610.814941,763.207458   C1633.605347,766.954407 1648.022583,781.433350 1653.196167,803.722229   C1656.263428,816.936523 1654.089722,830.236023 1646.671631,842.787720   C1641.881836,847.990662 1637.928833,853.285217 1632.958496,857.329651   C1558.320435,918.063599 1483.547852,978.632141 1408.808228,1039.241089   C1379.713379,1062.835083 1350.610840,1086.419556 1321.555176,1110.061768   C1319.782593,1111.504150 1317.264771,1112.459961 1318.269775,1115.952881   C1322.310791,1129.996704 1326.067871,1144.122314 1329.929810,1158.217651  z"
   id="path6" />
<path
   fill="#415C27"
   opacity="1.000000"
   stroke="none"
   d=" M583.576172,1549.045166   C600.505127,1574.777344 631.986755,1581.233032 654.737732,1567.290283   C670.760254,1557.471069 686.331360,1546.915405 702.111206,1536.699707   C800.429688,1473.050415 898.758606,1409.416992 997.029297,1345.693848   C999.941101,1343.805908 1001.872620,1343.684570 1004.910400,1345.654663   C1097.996338,1406.024658 1191.162598,1466.270630 1284.316284,1526.536011   C1304.288696,1539.457031 1324.114014,1552.612671 1344.268799,1565.242554   C1371.365356,1582.222778 1401.042969,1575.210693 1418.596191,1547.992188   C1420.945312,1558.381958 1424.620483,1568.925049 1424.772461,1579.518921   C1425.241821,1612.217041 1388.750244,1642.691895 1351.675049,1624.685913   C1339.909180,1618.971558 1329.133545,1611.161865 1318.092407,1604.020874   C1236.114380,1550.999268 1154.185547,1497.901611 1072.237061,1444.834473   C1049.864014,1430.346680 1027.429688,1415.952881 1005.148804,1401.324951   C1001.953064,1399.227051 999.782593,1399.453125 996.712830,1401.447388   C944.041138,1435.666138 891.296753,1469.773071 838.565552,1503.900269   C778.840271,1542.553711 718.839172,1580.790527 659.526672,1620.067383   C637.373230,1634.737427 609.096375,1632.814087 590.129517,1612.526978   C577.492004,1599.009644 574.955261,1582.601074 578.669678,1565.000366   C579.794800,1559.669067 581.722168,1554.507080 583.576172,1549.045166  z"
   id="path7" />
<path
   fill="#415C27"
   opacity="1.000000"
   stroke="none"
   d=" M1330.268555,1158.117676   C1326.067871,1144.122314 1322.310791,1129.996704 1318.269775,1115.952881   C1317.264771,1112.459961 1319.782593,1111.504150 1321.555176,1110.061768   C1350.610840,1086.419556 1379.713379,1062.835083 1408.808228,1039.241089   C1483.547852,978.632141 1558.320435,918.063599 1632.958496,857.329651   C1637.928833,853.285217 1641.881836,847.990662 1646.606934,843.142761   C1658.370850,862.955627 1657.482788,882.822388 1644.311768,901.195312   C1638.629517,909.121826 1630.175049,915.216125 1622.460205,921.505249   C1571.736328,962.855652 1520.878662,1004.042053 1470.048706,1045.262207   C1430.470947,1077.357300 1390.875366,1109.430542 1351.274048,1141.496582   C1344.419922,1147.046631 1337.497925,1152.512695 1330.268555,1158.117676  z"
   id="path8" />
<path
   fill="#415C27"
   opacity="1.000000"
   stroke="none"
   d=" M356.565247,844.133545   C364.350494,856.007690 376.248871,863.461853 386.893341,872.142212   C484.212097,951.504517 581.617920,1030.760132 679.123047,1109.893188   C683.238342,1113.233032 684.207886,1116.031006 682.672974,1121.068848   C678.898621,1133.456177 675.807678,1146.051636 672.253052,1158.907959   C662.280334,1151.530640 652.401184,1143.925903 642.728333,1136.067383   C589.481140,1092.806885 536.282410,1049.486694 483.071014,1006.182129   C445.228973,975.385315 407.369263,944.609985 369.564301,913.767700   C349.420074,897.333496 343.035461,870.816345 353.751312,848.604126   C354.468811,847.116882 355.435974,845.750122 356.565247,844.133545  z"
   id="path9" />
</svg>
